<?xml version="1.0" encoding="UTF-8"?>
<svg id="Layer_1" data-name="Layer 1" xmlns="http://www.w3.org/2000/svg" viewBox="0 0 1953.36 448.89">
  <defs>
    <style>
      .cls-1 {
        fill: #b0d485;
      }

      .cls-2 {
        fill: #5e5e5e;
      }
    </style>
  </defs>
  <g>
    <path class="cls-2" d="M759.42,131.73c-11.21-5.09-30.98-10.81-60.44-17.48-34.27-7.75-46.33-13.81-50.46-17.57-5.54-4.96-8.24-11.13-8.24-18.88,0-9.07,4.01-16.69,12.25-23.3,8.56-6.86,22.94-10.34,42.73-10.34s33.21,3.86,42.49,11.48c9.24,7.59,14.53,18.7,16.18,33.99l.67,6.24,46.43-3.49-.24-6.25c-.65-16.81-5.43-32.1-14.2-45.45-8.83-13.44-21.56-23.73-37.83-30.6-15.87-6.69-34.36-10.08-54.96-10.08-18.77,0-36.11,3.23-51.55,9.61-15.88,6.56-28.16,16.38-36.52,29.17-8.32,12.75-12.55,26.68-12.55,41.39,0,13.48,3.5,25.84,10.4,36.75,6.85,10.84,17.29,19.99,30.99,27.16,10.43,5.54,27.81,11.19,53.15,17.27,24.17,5.81,39.9,10.1,46.81,12.8,10.01,3.81,17.16,8.42,21.26,13.69,3.99,5.14,5.93,11.03,5.93,18s-2.07,13.18-6.34,19.1c-4.28,5.92-11.06,10.72-20.16,14.26-9.54,3.7-20.78,5.58-33.4,5.58-14.23,0-27.17-2.49-38.45-7.39-10.95-4.77-19.07-10.98-24.11-18.47-5.17-7.67-8.53-17.79-9.97-30.06l-.74-6.25-45.73,4,.17,6.11c.52,19.01,5.81,36.32,15.75,51.45,9.97,15.18,23.88,26.7,41.34,34.23,17.1,7.37,38.43,11.11,63.4,11.11,19.94,0,38.19-3.73,54.23-11.07,16.33-7.48,29.07-18.16,37.86-31.74,8.8-13.6,13.26-28.32,13.26-43.75s-4.12-29.61-12.23-41.66c-8.06-11.95-20.55-21.89-37.17-29.55Z"/>
    <path class="cls-2" d="M953.43,86.56c-8.86,13.57-16.79,26.01-23.66,37.56-6.85-11.91-14.17-23.56-21.84-35.45l-54.63-83.23h-58.7l108.09,161.7v117.3h50v-117.24L1064.27,5.44h-57.1l-53.74,81.12Z"/>
    <polygon class="cls-2" points="1253.68 199.63 1123.02 5.44 1076.68 5.44 1076.68 284.44 1123.68 284.44 1123.68 89.7 1254.17 284.44 1299.68 284.44 1299.68 77.44 1253.68 77.44 1253.68 199.63"/>
    <polygon class="cls-2" points="1492.68 5.44 1253.68 5.44 1253.68 50.44 1350.68 50.44 1350.68 284.44 1397.68 284.44 1397.68 50.44 1492.68 50.44 1492.68 5.44"/>
    <path class="cls-2" d="M1549.76,5.44l-107.68,279h51.56l29.37-81h102.81l31.19,81h54.43L1596.7,5.44h-46.94ZM1538.04,161.44l26.1-69.35c3.5-9.53,6.58-19,9.22-28.69,3.37,9.94,7.38,20.8,12,33.03l24.6,65.01h-71.92Z"/>
    <path class="cls-2" d="M1847.53,137.36L1946.36,5.44h-54.63l-55.73,73.04c-5.8,7.53-11.11,14.7-15.84,21.86-4.21-6.67-9.7-14.45-16.41-23.91l-50.46-70.99h-58.07l95.77,133.77-108.3,145.23h58.71l69.07-95.65.05.05c1.77-2.53,4.26-6.29,7.53-11.51,2.13,3.27,4.23,6.19,6.29,9.19l69.25,97.93h59.76l-105.83-147.08Z"/>
  </g>
  <path class="cls-2" d="M1203.13,403.52l14.33-1.25c.68,5.75,2.26,10.46,4.74,14.14,2.48,3.68,6.33,6.66,11.55,8.93,5.22,2.27,11.09,3.41,17.62,3.41,5.8,0,10.92-.86,15.35-2.59,4.44-1.72,7.74-4.08,9.91-7.08,2.17-3,3.25-6.28,3.25-9.83s-1.05-6.75-3.13-9.44c-2.09-2.69-5.54-4.95-10.34-6.78-3.08-1.2-9.9-3.07-20.44-5.59-10.55-2.53-17.93-4.92-22.17-7.17-5.48-2.87-9.57-6.44-12.26-10.69-2.69-4.25-4.03-9.02-4.03-14.29,0-5.8,1.64-11.21,4.93-16.25,3.29-5.04,8.09-8.86,14.41-11.48,6.32-2.61,13.34-3.91,21.07-3.91,8.51,0,16.02,1.37,22.52,4.11,6.5,2.74,11.5,6.78,15,12.1,3.5,5.33,5.38,11.36,5.64,18.09l-14.57,1.1c-.79-7.26-3.44-12.74-7.95-16.45-4.52-3.7-11.19-5.56-20.01-5.56s-15.89,1.68-20.09,5.05c-4.2,3.37-6.3,7.43-6.3,12.18,0,4.12,1.49,7.52,4.46,10.18,2.92,2.66,10.56,5.39,22.91,8.18,12.35,2.79,20.82,5.24,25.42,7.33,6.68,3.08,11.62,6.98,14.81,11.71,3.18,4.73,4.78,10.17,4.78,16.33s-1.75,11.86-5.25,17.27c-3.5,5.41-8.52,9.61-15.08,12.61-6.55,3-13.93,4.51-22.13,4.51-10.39,0-19.1-1.52-26.12-4.54-7.03-3.03-12.54-7.58-16.53-13.67-4-6.09-6.1-12.96-6.31-20.64Z"/>
  <g>
    <path class="cls-1" d="M1320.54,324.44h-19.37l19.97,24h11.07l-11.66-24Z"/>
    <path class="cls-2" d="M1313.57,440.4v-83.18h14.1v83.18h-14.1Z"/>
  </g>
  <g>
    <path class="cls-1" d="M1695.5,324.44h-19.37l19.97,24h11.07l-11.66-24Z"/>
    <path class="cls-2" d="M1688.53,440.4v-83.18h14.1v83.18h-14.1Z"/>
  </g>
  <path class="cls-2" d="M1350.93,440.4v-114.82h39.55c8.93,0,15.75.55,20.45,1.64,6.58,1.52,12.19,4.26,16.84,8.23,6.06,5.12,10.59,11.66,13.59,19.62,3,7.96,4.5,17.06,4.5,27.3,0,8.72-1.02,16.45-3.05,23.18-2.04,6.74-4.65,12.31-7.83,16.73-3.19,4.41-6.67,7.88-10.46,10.42-3.79,2.53-8.35,4.45-13.71,5.76-5.35,1.3-11.5,1.95-18.45,1.95h-41.43ZM1366.13,426.86h24.52c7.57,0,13.51-.71,17.82-2.11,4.31-1.41,7.74-3.4,10.3-5.95,3.6-3.61,6.41-8.45,8.42-14.53,2.01-6.08,3.02-13.46,3.02-22.13,0-12-1.97-21.24-5.91-27.69-3.94-6.45-8.73-10.77-14.37-12.96-4.07-1.57-10.63-2.35-19.66-2.35h-24.12v87.73Z"/>
  <path class="cls-2" d="M1467.09,440.4v-114.82h83.03v13.55h-67.83v35.17h63.52v13.47h-63.52v39.09h70.5v13.55h-85.69Z"/>
  <path class="cls-2" d="M1573.15,440.4v-114.82h15.2v56.94l57.02-56.94h20.6l-48.17,46.53,50.29,68.3h-20.05l-40.89-58.12-18.8,18.33v39.79h-15.2Z"/>
  <path class="cls-2" d="M1807.26,400.15l15.2,3.84c-3.19,12.48-8.92,22-17.19,28.55-8.28,6.56-18.39,9.83-30.35,9.83s-22.44-2.52-30.2-7.56c-7.76-5.04-13.66-12.34-17.71-21.89-4.05-9.56-6.07-19.82-6.07-30.78,0-11.96,2.29-22.39,6.86-31.29,4.57-8.9,11.07-15.66,19.5-20.28,8.43-4.62,17.71-6.93,27.85-6.93,11.49,0,21.14,2.92,28.98,8.77,7.83,5.85,13.29,14.07,16.37,24.67l-14.96,3.53c-2.66-8.35-6.53-14.44-11.59-18.25-5.06-3.81-11.43-5.72-19.11-5.72-8.83,0-16.2,2.12-22.13,6.35-5.92,4.23-10.09,9.91-12.49,17.03-2.4,7.13-3.6,14.48-3.6,22.05,0,9.77,1.42,18.29,4.27,25.58,2.85,7.28,7.27,12.72,13.28,16.33,6,3.6,12.5,5.4,19.5,5.4,8.51,0,15.72-2.45,21.62-7.36,5.9-4.91,9.89-12.19,11.98-21.85Z"/>
  <path class="cls-2" d="M1840.55,440.4v-114.82h15.19v56.94l57.03-56.94h20.6l-48.17,46.53,50.28,68.3h-20.05l-40.89-58.12-18.8,18.33v39.79h-15.19Z"/>
  <path class="cls-2" d="M379.5,4.43c.73-.86,1.23-2.52,2.67-2.31,27.38-.11,54.76.04,82.15-.1-46.01,70.67-264.52,404.45-291.66,446.44-28.31.36-56.64.19-84.96,0C130.86,381.85,371.07,17.72,379.5,4.43Z"/>
  <path class="cls-1" d="M547.94,429.38c-2.96,11.89-15.06,19.98-27.1,19.45-94.76.02-189.53.17-284.28-.13,10.6-16.26,24.56-37.65,40.63-62.24,61.4-.25,122.79-.08,184.2-.17-21.87-39.22-45.26-77.58-67.41-116.65-6.36-10.97-12.43-22.12-18.79-33.08,1.43-2.18,2.86-4.37,4.28-6.55,12.6-19.25,25.03-38.27,36.97-56.55,7.9,14.73,16.11,29.31,24.02,44.05,21.65,39.59,43.41,79.12,64.95,118.76,12.36,23.36,25.42,46.33,37.79,69.67,4.28,6.9,7.45,15.33,4.74,23.44Z"/>
  <path class="cls-1" d="M316.76,2.22c-10.43,15.88-24.76,37.66-40.93,62.21-62.75.28-125.51.11-188.27.19,21.87,39.23,45.26,77.58,67.41,116.65,6.88,11.89,13.44,23.97,20.38,35.81-14.13,21.47-28.11,42.72-41.44,62.99-8.34-15.63-17.04-31.07-25.43-46.67-21.65-39.59-43.41-79.12-64.96-118.76-12.36-23.36-25.42-46.33-37.79-69.67C1.46,38.06-1.71,29.63,1.01,21.53,3.97,9.64,16.08,1.54,28.11,2.08c96.22-.02,192.44-.17,288.65.14Z"/>
  <polygon class="cls-1" points="1188.14 386.44 583.19 386.44 594.09 378.44 1199.04 378.44 1188.14 386.44"/>
</svg>